<?xml version="1.0" encoding="UTF-8" standalone="no"?><!DOCTYPE svg PUBLIC "-//W3C//DTD SVG 1.1//EN" "http://www.w3.org/Graphics/SVG/1.1/DTD/svg11.dtd"><svg width="100%" height="100%" viewBox="0 0 32 32" version="1.1" xmlns="http://www.w3.org/2000/svg" xmlns:xlink="http://www.w3.org/1999/xlink" xml:space="preserve" style="fill-rule:evenodd;clip-rule:evenodd;stroke-linejoin:round;stroke-miterlimit:1.41421;"><circle id="Twitter" cx="16" cy="16" r="16" style="fill:#8393a7;"/><clipPath id="_clip1"><circle cx="16" cy="16" r="16"/></clipPath><g clip-path="url(#_clip1)"><path id="Twitter-Icon" d="M22.359,13.238c0.006,0.141 0.008,0.282 0.008,0.424c0,4.339 -3.299,9.343 -9.333,9.343c-1.853,0 -3.576,-0.543 -5.028,-1.477c0.257,0.032 0.517,0.047 0.782,0.047c1.537,0 2.952,-0.524 4.075,-1.407c-1.436,-0.024 -2.648,-0.975 -3.066,-2.278c0.201,0.039 0.408,0.059 0.619,0.059c0.298,0 0.587,-0.041 0.864,-0.115c-1.501,-0.302 -2.633,-1.63 -2.633,-3.219c0,-0.018 0,-0.03 0,-0.042c0.443,0.244 0.95,0.394 1.488,0.41c-0.882,-0.589 -1.461,-1.594 -1.461,-2.732c0,-0.603 0.162,-1.166 0.445,-1.652c1.617,1.986 4.036,3.293 6.762,3.431c-0.056,-0.239 -0.085,-0.492 -0.085,-0.749c0,-1.813 1.468,-3.283 3.281,-3.283c0.943,0 1.795,0.399 2.393,1.038c0.748,-0.148 1.45,-0.421 2.085,-0.798c-0.247,0.766 -0.766,1.41 -1.444,1.816c0.664,-0.076 1.297,-0.254 1.884,-0.515c-0.44,0.658 -0.995,1.235 -1.636,1.699Z" style="fill:#fff;"/></g></svg>